<?xml version="1.0" standalone="no"?>
<!DOCTYPE svg PUBLIC "-//W3C//DTD SVG 1.1//EN" "http://www.w3.org/Graphics/SVG/1.1/DTD/svg11.dtd" >
<svg xmlns="http://www.w3.org/2000/svg">
<metadata>Generated by IcoMoon</metadata>
<defs>
<font id="icomoon" horiz-adv-x="1024">
<font-face units-per-em="1024" ascent="960" descent="-64" />
<missing-glyph horiz-adv-x="1024" />
<glyph unicode="&#x20;" horiz-adv-x="512" d="" />
<glyph unicode="&#xe900;" glyph-name="linkedin" horiz-adv-x="1075" d="M46.293-52.727h218.595v666.587h-218.595v-666.587zM155.626 704.839c76.163 0 123.664 51.233 123.664 115.22-1.382 65.397-47.502 115.15-122.21 115.15-74.781 0-123.664-49.753-123.664-115.15 0-63.988 47.429-115.22 120.827-115.22h1.382zM1053.14 329.509c0 204.719-107.879 300.066-251.621 300.066-116.026 0-168.038-64.763-196.99-110.147v94.431h-218.595c2.91-62.508 0-666.587 0-666.587h218.595v372.299c0 19.873 1.382 39.746 7.202 53.981 15.785 39.816 51.721 81.042 112.098 81.042 79.145 0 110.716-61.099 110.716-150.667v-356.655h218.595v382.236z" />
<glyph unicode="&#xe901;" glyph-name="google" horiz-adv-x="1536" d="M1346.218 388.778v-143.959h-115.294v143.959h-144.091v115.176h144.091v143.944h115.294v-143.944h144.106v-115.176h-144.106zM971.554 409.569c0-283.11-188.268-473.369-468.488-473.369-274.042 0-497.020 218.717-497.020 487.657 0 268.925 222.979 487.672 497.020 487.672 119.865 0 235.674-42.496 326.019-119.614l-126.397-142.513c-55.295 47.2-126.205 73.21-199.622 73.21-167.905 0-304.476-134.020-304.476-298.74 0-164.705 136.586-298.711 304.476-298.711 142.056 0 235.055 67.976 265.253 189.979h-262.894v188.887h466.129v-94.458z" />
<glyph unicode="&#xe902;" glyph-name="twitter" horiz-adv-x="1186" d="M562.987 666.818l2.469-41.433-41.742 5.092c-151.998 19.366-284.861 85.258-397.586 195.9l-55.167 54.935-14.197-40.584c-30.091-90.35-10.802-185.792 51.772-249.986 33.409-35.492 25.925-40.507-31.711-19.366-20.061 6.713-37.575 11.728-39.273 9.259-5.787-5.941 14.197-82.789 30.091-113.188 21.681-42.282 65.969-83.56 114.423-108.096l40.97-19.443-48.454-0.849c-46.757 0-48.454-0.849-43.439-18.595 16.743-54.858 82.712-113.188 156.164-138.496l51.849-17.746-45.136-27.005c-66.817-38.887-145.285-60.799-223.83-62.419-37.652-0.849-68.515-4.244-68.515-6.79 0-8.41 101.923-55.707 161.18-74.302 177.922-54.935 389.254-31.248 547.964 62.497 112.803 66.74 225.528 199.295 278.148 327.683 28.471 68.36 56.864 193.431 56.864 253.304 0 38.887 2.469 43.902 49.226 90.35 27.622 27.082 53.469 56.556 58.484 65.043 8.41 16.049 7.484 16.049-35.029 1.697-71.061-25.307-81.091-21.912-45.985 16.049 25.925 27.005 56.787 75.999 56.787 90.35 0 2.546-12.499-1.62-26.696-9.259-15.045-8.487-48.454-21.141-73.53-28.702l-45.059-14.428-40.97 27.931c-22.53 15.2-54.241 32.097-70.984 37.189-42.59 11.728-107.787 10.107-146.211-3.395-104.392-38.038-170.361-136.027-162.877-243.197z" />
<glyph unicode="&#xe903;" glyph-name="facebook" horiz-adv-x="488" d="M110.275-51.725h204.102v494.027h136.204l18.043 170.241h-154.248l0.234 85.238c0 44.347 4.218 68.19 67.897 68.19h85.12v170.241h-136.204c-163.621 0-221.149-82.601-221.149-221.501v-102.168h-101.992v-170.299h101.992v-493.968z" />
<glyph unicode="&#xe904;" glyph-name="share" d="M848.75 292.669c-50.038 0-94.993-21.388-126.946-55.578l-373.273 185.838c1.3 8.744 2.167 17.607 2.167 26.666 0 8.863-0.827 17.528-2.049 25.997l372.722 183.829c31.953-34.426 77.145-56.051 127.379-56.051 96.845 0 175.368 79.842 175.368 178.315 0 98.512-78.524 178.315-175.368 178.315s-175.368-79.802-175.368-178.315c0-8.863 0.867-17.489 2.088-25.997l-372.722-183.79c-31.953 34.426-77.145 56.011-127.379 56.011-96.884 0-175.368-79.802-175.368-178.315 0-98.473 78.484-178.315 175.368-178.315 49.998 0 94.993 21.388 126.946 55.578l373.234-185.838c-1.261-8.744-2.167-17.568-2.167-26.706 0-98.473 78.524-178.315 175.368-178.315s175.368 79.842 175.368 178.315c0 98.512-78.524 178.354-175.368 178.354z" />
<glyph unicode="&#xe905;" glyph-name="report" d="M452.61 391.095v341.333h113.165v-341.333h-113.165zM509.193 146.505c-39.593 0-73.572 34.133-73.572 73.972 0 39.79 33.979 73.923 73.572 73.923s73.523-34.133 73.523-73.923c0-39.838-33.93-73.972-73.523-73.972v0zM718.533 960h-418.681l-299.853-301.495v-426.667l299.853-295.838h424.295l299.853 301.544v420.962l-305.467 301.495z" />
<glyph unicode="&#xe906;" glyph-name="follow" d="M511.979 960l-168.768-321.805-343.211-69.336 238.921-268.171-43.355-364.687 316.413 156.081 316.456-156.081-43.355 364.687 238.921 268.171-343.211 69.336z" />
<glyph unicode="&#xe907;" glyph-name="like" horiz-adv-x="1126" d="M811.956 960c-99.165 0-190.090-46.784-248.74-123.731-58.65 76.947-149.624 123.731-248.74 123.731-173.367 0-314.46-142.93-314.46-318.75 0-82.555 31.105-161.017 87.707-220.785l475.493-484.465 31.982 32.537 435.027 443.339c61.576 60.072 96.191 141.768 96.191 229.374 0 175.82-141.093 318.75-314.46 318.75z" />
<glyph unicode="&#xe908;" glyph-name="comment" horiz-adv-x="1240" d="M629.303 959.849c-342.243 6.468-623.981-195.994-629.226-452.2-1.859-89.109 29.99-172.96 86.681-244.713v0c97.457-120.239-8.916-326.936-8.916-326.936l314.112 129.872c67.705-20.521 141.227-32.48 218.277-33.922 342.291-6.468 624.029 195.994 629.274 452.2 5.245 256.253-267.959 469.231-610.202 475.699z" />
<glyph unicode="&#xe909;" glyph-name="close" d="M46.708 960.003l-46.708-46.708 458.752-458.752-448.446-448.413 47.5-47.5 448.413 448.446 425.72-425.72 46.708 46.708-425.72 425.72 448.446 448.413-47.467 47.5-448.446-448.446z" />
<glyph unicode="&#xe90a;" glyph-name="arrow-right" horiz-adv-x="542" d="M61.56 960l480.828-507.452-6.385-6.776 5.030-5.301-478.328-504.802-61.35 64.783 423.153 446.554-424.508 448z" />
<glyph unicode="&#xe90b;" glyph-name="arrow-left" horiz-adv-x="542" d="M480.828 960l-480.828-507.452 6.385-6.776-5.030-5.301 478.328-504.802 61.35 64.783-423.153 446.554 424.508 448z" />
<glyph unicode="&#xe90c;" glyph-name="arrow-down" horiz-adv-x="1862" d="M942.080-66.7l-13.964 13.684-10.985-10.799-917.132 890.321 133.679 130.607 797.044-773.679 799.837 776.564 134.051-130.979z" />
<glyph unicode="&#xe90d;" glyph-name="arrow-up" horiz-adv-x="1862" d="M942.080 960l-13.964-13.684-10.985 10.799-917.132-890.321 133.679-130.607 797.044 773.679 799.837-776.564 134.051 130.979z" />
<glyph unicode="&#xe90e;" glyph-name="menu" horiz-adv-x="1920" d="M0 832h1920v128h-1920v-128zM0 384h1920v128h-1920v-128zM0-64h1920v128h-1920v-128z" />
<glyph unicode="&#xe90f;" glyph-name="search" d="M402.991 248.711c170.217 0 308.177 138.007 308.177 308.224s-137.961 308.224-308.177 308.224c-170.217 0-308.177-138.007-308.177-308.224s137.961-308.224 308.177-308.224v0zM636.602 228.464c-65.908-46.964-146.525-74.612-233.612-74.612-222.58 0-402.991 180.457-402.991 403.084 0 222.58 180.41 403.084 402.991 403.084s402.991-180.503 402.991-403.084c0-87.087-27.601-167.75-74.566-233.658l264.751-264.797c26.112-26.112 25.879-67.863 0-93.743l-1.117-1.117c-25.786-25.786-67.817-25.879-93.696 0l-264.751 264.844z" />
<glyph unicode="&#xe910;" glyph-name="book" horiz-adv-x="1092" d="M1040.26 768.529c0 7.574-6.286 13.748-14.008 13.748h-42.331v-634.678h-26c-255.318 0-358.565-54.004-385.761-71.846v-47.829l-26.581 25.382-25.18-22.721-0.205 45.168c-26.717 17.569-129.794 71.846-385.829 71.846h-26v634.678h-42.365c-7.721 0-13.974-6.175-13.974-13.748v-704.512c0-7.574 6.252-13.748 13.974-13.748h387.094l7.414-13.066c1.127-1.945 30.1-50.422 85.618-50.422s84.491 48.478 85.721 50.559l7.482 12.793 15.169 0.136h371.753c7.721 0 14.008 6.175 14.008 13.748v704.512zM931.888 908.947c-249.373-5.424-340.048-88.119-359.727-110.055v-664.768c53.503 25.962 162.012 61.203 359.727 64.034v710.789zM160.365 908.913v-710.755c197.749-2.832 306.258-38.072 359.761-64.034v664.529c-20.328 21.936-113.258 104.768-359.761 110.26v0zM1026.252-0.529h-357.916c-16.741-21.902-57.090-63.454-122.21-63.454s-105.468 41.552-122.175 63.454h-357.951c-36.386 0-66.007 28.964-66.007 64.546v704.512c0 35.582 29.621 64.512 66.007 64.512h42.365v126.977h26c252.653 0 368.405-75.326 411.761-114.832 43.39 39.505 159.142 114.832 411.795 114.832h26v-126.977h42.331c36.42 0 66.007-28.93 66.007-64.512v-704.512c0-35.582-29.587-64.546-66.007-64.546v0z" />
<glyph unicode="&#xe911;" glyph-name="case" d="M512.48 604.448c-40.288 0-73.088-32.16-73.088-71.584 0-39.488 32.8-71.648 73.088-71.648s73.088 32.16 73.088 71.648c0 39.424-32.8 71.584-73.088 71.584v0zM512.48 413.504c-67.168 0-121.792 53.536-121.792 119.36 0 65.76 54.624 119.328 121.792 119.328s121.792-53.568 121.792-119.328c0-65.824-54.624-119.36-121.792-119.36v0zM834.080 408.128l-248.48-92.672 38.304-99.2 248.384 92.64-38.208 99.232zM894.208 265.984l-260.48-97.024c-4.256-2.144-9.536-3.296-15.040-3.296-5.952 0-12.16 1.28-17.856 4.032-10.336 4.928-17.824 14.048-20.768 25.184l-42.72 111.040c-4.512 8.544-4.608 21.408 0.768 32.128 5.056 10.144 14.304 17.472 25.664 20.352l260.48 97.024c8.768 4.448 21.92 4.512 32.864-0.736 10.368-4.928 17.824-14.048 20.8-25.184l42.4-110.112c4.864-10.496 4.736-22.72-0.352-32.992-5.088-10.176-14.368-17.504-25.76-20.416v0zM975.296 711.040v20.704h-926.592v-716.032h926.592v695.328zM617.568 878.656l-209.472 1.6-1.312-100.8h210.784v99.2zM954.176-32h-884.352c-39.136 0-69.824 30.016-69.824 68.416v674.624c0 38.4 30.688 68.416 69.824 68.416h287.904v99.2c0 28.128 21.664 49.344 50.368 49.344h207.84c28.704 0 50.336-21.216 50.336-49.344v-99.2h287.904c39.136 0 69.824-30.016 69.824-68.416v-674.624c0-38.4-30.688-68.416-69.824-68.416v0z" />
<glyph unicode="&#xe912;" glyph-name="animal" d="M169.823 675.728c-3.389-6.020-5.18-12.872-5.18-19.852 0-7.044 1.791-13.864 5.18-19.852l-40.961-24.334c-7.578 13.352-11.575 28.625-11.575 44.186 0 15.529 3.997 30.802 11.575 44.122 18.93 33.588 59.187 51.006 96.279 41.24 7.514-2.049 14.677-5.027 21.36-8.933l-23.47-42.041c-3.102 1.793-6.395 3.17-9.817 4.098-16.244 4.227-34.822-3.458-43.391-18.635zM328.615 428.011c0 19.884 15.764 35.989 35.205 35.989 19.409 0 35.173-16.106 35.173-35.989 0-19.852-15.764-35.957-35.173-35.957-19.441 0-35.205 16.106-35.205 35.957zM560 376.105c0 30.823-21.538 55.895-48.013 55.895-26.449 0-47.987-25.072-47.987-55.895v-112.18c0-30.823 21.538-55.925 47.987-55.925 26.476 0 48.013 25.102 48.013 55.925v112.18zM416 262.959v114.112c0 56.766 43.067 102.929 96 102.929 52.963 0 96-46.163 96-102.929v-114.112c0-56.766-43.037-102.959-96-102.959-52.933 0-96 46.193-96 102.959zM660.212 392.053c-19.441 0-35.205 16.106-35.205 35.957 0 19.884 15.764 35.989 35.205 35.989 19.409 0 35.173-16.106 35.173-35.989 0-19.852-15.764-35.957-35.173-35.957zM854.177 636.025c3.389 5.988 5.18 12.84 5.18 19.852 0 6.98-1.791 13.832-5.18 19.82-8.601 15.209-26.252 23.118-43.615 18.635-3.23-0.865-6.491-2.241-9.497-4.002l-23.694 41.945c6.683 3.938 13.877 6.948 21.392 8.965 38.659 10.022 77.445-7.749 96.407-41.304 7.546-13.32 11.543-28.593 11.543-44.058 0-15.529-3.997-30.77-11.543-44.154l-40.993 24.302zM665.232 737.141c0.831-0.384 1.311-0.897 2.142-1.313 7.45-3.714 14.133-7.845 20.273-12.295 1.567-1.153 3.517-2.209 4.988-3.394 6.619-5.379 12.311-11.207 16.627-17.674 12.598-18.731 61.457-66.234 106.927-148.107 0.671-1.153 1.311-2.337 1.951-3.522 5.052-9.125 10.040-18.219 14.933-27.312 0.448-0.8 0.863-1.601 1.311-2.433 13.494-25.071 26.22-49.629 36.9-71.883 66.446 80.56 105.36 139.269 105.36 215.795 0 83.025-74.44 150.585-165.954 150.585-61.106 0-116.712-30.706-145.458-78.446zM656.247 687.031c-2.366 1.505-5.052 3.074-8.218 4.675-1.823 0.929-3.805 1.825-5.82 2.722-3.997 1.825-8.538 3.682-13.686 5.539-30.185 10.886-42.791 19.66-100.54 19.66-57.652 0-102.227-8.741-132.412-19.628-5.212-1.889-9.849-3.778-13.909-5.603-1.951-0.897-3.933-1.793-5.692-2.69-3.198-1.665-5.947-3.234-8.314-4.739-1.567-0.993-3.166-1.985-4.509-2.978-1.631-1.217-3.006-2.337-4.157-3.362-2.11-1.921-4.157-3.81-5.308-5.603-1.087-1.665-2.206-3.49-3.294-5.187-11.639-18.603-52.632-52.626-93.465-124.893-22.831-40.6-43.903-80.111-60.178-113.827-1.855-3.874-3.773-7.813-5.5-11.559-0.64-1.345-1.215-2.626-1.823-3.938-3.070-6.724-6.011-13.256-8.633-19.5l-5.34-12.647c-6.875-17.482-10.808-31.122-10.808-39.383 0-171.237 187.218-263.644 363.341-263.644 176.187 0 331.373 92.407 331.373 263.644 0 8.229-3.933 21.869-10.84 39.383l-5.34 12.583c-2.59 6.148-5.468 12.615-8.506 19.243-0.671 1.473-1.311 2.85-2.014 4.355-1.631 3.554-3.453 7.268-5.212 10.918-16.34 33.876-37.572 73.676-60.562 114.564-41.856 74.092-84 109.908-94.329 126.398-0.735 1.185-1.535 2.497-2.302 3.65-1.183 1.793-3.23 3.65-5.308 5.539-1.151 1.025-2.494 2.113-4.125 3.33-1.375 0.993-2.974 1.985-4.573 2.978zM47.356 665.002c0-76.493 38.883-135.107 105.296-215.699 31.88 67.816 78.852 117.112 114.633 176.283 22.383 37.494 40.417 66.311 47.26 76.365 4.189 6.788 10.104 12.712 16.883 18.219 1.407 1.153 3.262 2.177 4.796 3.266 6.171 4.515 12.95 8.677 20.464 12.423 0.799 0.416 1.279 0.897 2.11 1.281-28.778 47.74-84.416 78.446-145.49 78.446-91.515 0-165.954-67.56-165.954-150.585zM906.713 344.089c0-177.897-144.57-312.089-378.729-312.089-234.127 0-410.697 134.192-410.697 312.089 0 13.544 5.564 33.396 14.453 56.738-82.498 93.239-131.74 170.872-131.74 264.176 0 109.729 95.703 198.998 213.31 198.998 81.186 0 154.731-43.834 190.448-110.69 39.586 10.406 84.96 14.729 124.226 14.729 39.298 0 52.704-4.323 92.29-14.729 35.685 66.856 109.197 110.69 190.416 110.69 117.607 0 213.31-89.269 213.31-198.998 0-93.463-49.339-171.256-131.996-264.464 9.081-23.47 14.709-43.258 14.709-56.449z" />
<glyph unicode="&#xe913;" glyph-name="fruit" d="M411.4 546.014c-15.488-63.891-26.065-113.050-67.237-160.543-14.181-16.365-28.199-32.538-40.714-49.063-35.911-47.334-109.857-168.966-21.566-275.259 56.333-67.894 122.329-76.438 230.127-76.438s173.793 8.544 230.094 76.438c88.323 106.292 14.345 227.925-21.533 275.291-12.515 16.493-26.566 32.666-40.714 49.031-41.172 47.494-51.749 96.653-67.237 160.543-9.639 39.647-35.486 106.132-100.609 106.132-65.156 0-91.003-66.485-100.609-106.132zM536.974 702.042c157.139 15.148 190.272 141.386 197.232 206.397-56.954-9.351-186.449-19.145-197.232-206.397zM716.42 417.432c14.475-16.685 29.408-33.915 42.74-51.465 89.401-118.014 96.95-243.649 20.194-336.043-65.417-78.815-145.333-93.924-267.345-93.924s-201.927 15.109-267.377 93.924c-76.756 92.393-69.175 218.029 20.226 336.011 13.332 17.582 28.265 34.812 42.708 51.497 37.381 43.138 44.004 87.718 56.748 140.111 19.377 80.032 63.293 129.991 122.372 140.944-10.979 170.407-145.506 212.226-151.486 215.396l22.481 43.17c5.522-2.914 104.563-24.365 152.695-143.659 61.289 160.133 218.095 146.143 249.742 146.414l24.638 0.192-0.196-24.788c-0.85-91.945-42.871-220.585-183.998-268.687 27.056-24.435 47.576-61.201 59.144-108.983 12.744-52.394 19.367-96.973 56.715-140.111z" />
<glyph unicode="&#xe914;" glyph-name="home" d="M556.549 913.692c-24.604 25.575-64.62 25.441-89.090 0l-467.459-486.003 33.856-33.815 77.056 76.875v-411.944c0-35.466 28.676-64.217 63.841-64.217h259.295v392.311h156v-392.311h259.295c35.259 0 63.841 28.36 63.841 64.217v411.944l77.024-76.875 33.888 33.815-467.547 486.003zM158.848 518.577l353.152 373.794 353.248-373.794v-476.161h-227.296v392.279h-251.808v-392.279h-227.296v476.161z" />
<glyph unicode="&#xe915;" glyph-name="tv" d="M64.056 864h895.888c35.599 0 64.056-28.716 64.056-64.138v-553.483c0-35.712-28.541-64.138-63.748-64.138h-423.877v-101.41h200.668v-48.831h-450.086v48.831h200.636v101.41h-423.849c-35.063 0-63.744 28.716-63.744 64.138v553.483c0 35.712 28.679 64.138 64.056 64.138zM48.782 231.071h926.469v584.099h-926.469v-584.099zM492.045 457.303l-137.665 137.84-34.496-34.508 172.161-172.349 249.578 249.888-34.464 34.508-215.114-215.38z" />
<glyph unicode="&#xe916;" glyph-name="car" d="M230.59 350.304c0-22.048 17.839-39.264 40.609-39.264s40.609 17.216 40.609 39.264c0 22.016-17.839 39.264-40.609 39.264s-40.609-17.248-40.609-39.264zM181.878 350.304c0 48.448 39.232 86.4 89.322 86.4s89.322-37.952 89.322-86.4c0-48.448-39.232-86.4-89.322-86.4s-89.322 37.952-89.322 86.4zM712.223 350.304c0-22.048 17.807-39.264 40.577-39.264s40.609 17.216 40.609 39.264c0 22.016-17.839 39.264-40.609 39.264s-40.577-17.248-40.577-39.264zM663.511 350.304c0 48.448 39.232 86.4 89.29 86.4 50.089 0 89.322-37.952 89.322-86.4s-39.232-86.4-89.322-86.4c-50.057 0-89.29 37.952-89.29 86.4zM903.1 565.504l-32.827-21.152c-28.792-19.488-61.395-29.12-99.282-29.12h-517.983c-37.855 0-70.49 9.632-99.73 29.408l-32.347 20.864h-44.613c-15.213 0-27.607-11.968-27.607-26.688s12.394-26.72 27.607-26.72h50.345v-301.6h770.671v301.6h50.345c15.213 0 27.607 12 27.607 26.72s-12.394 26.688-27.607 26.688h-44.581zM795.364 736.352c-12.074 29.216-41.634 48.512-73.725 48.512h-419.246c-32.122 0-61.651-19.296-73.533-48.032l-74.269-136.384 26.198-16.896c21.201-14.368 44.677-21.184 72.219-21.184h517.983c27.575 0 51.018 6.816 71.803 20.864l26.614 17.216-74.045 135.904zM126.664 136.64c0-14.72 12.394-26.688 27.607-26.688h77.952c15.213 0 27.607 11.968 27.607 26.688v26.72h-133.166v-26.72zM764.202 136.64c0-14.72 12.362-26.688 27.607-26.688h77.92c15.245 0 27.607 11.968 27.607 26.688v26.72h-133.134v-26.72zM946.048 210.496v-73.856c0-40.704-34.236-73.824-76.319-73.824h-77.92c-42.115 0-76.351 33.12-76.351 73.824v26.72h-406.916v-26.72c0-40.704-34.236-73.824-76.319-73.824h-77.952c-42.083 0-76.319 33.12-76.319 73.824v26.72l-1.633 301.632c-42.083 0-76.319 33.12-76.319 73.824s34.236 73.824 76.319 73.824h30.681l76.831 142.208c18.992 45.92 66.711 77.152 118.562 77.152h419.246c51.819 0 99.538-31.232 118.754-77.664l76.607-141.696h30.681c42.083 0 76.319-33.12 76.319-73.824s-34.236-73.824-76.319-73.824l-1.633-254.496z" />
<glyph unicode="&#xe917;" glyph-name="bag" d="M975.264 347.232c-5.216-1.44-10.592-2.432-16.256-2.432h-341.568c-1.12-36.832-29.632-66.496-64.768-66.496h-81.28c-35.136 0-63.68 29.664-64.832 66.496h-341.536c-5.632 0-11.008 0.992-16.224 2.432v-330.496h926.464v330.496zM455.136 391.328v-44.32c0-10.976 7.296-19.968 16.256-19.968h81.28c8.96 0 16.224 8.992 16.224 19.968v44.32c0 11.040-7.264 19.968-16.224 19.968h-81.28c-8.96 0-16.256-8.928-16.256-19.968v0zM975.264 746.272h-926.464v-332.768c0-10.976 7.264-19.968 16.224-19.968h341.536c1.152 36.896 29.664 66.528 64.832 66.528h81.28c35.136 0 63.648-29.632 64.768-66.528h341.568c8.992 0 16.256 8.992 16.256 19.968v332.768zM383.36 795.008h257.856c-13.76 48.736-62.464 84.256-129.216 84.256-66.72 0-114.88-35.52-128.64-84.256v0zM65.024-32c-35.84 0-65.024 30.816-65.024 68.704v689.6c0 37.888 29.184 68.704 65.024 68.704h262.912c13.6 76.16 89.248 132.992 184.064 132.992 94.88 0 170.464-56.832 184.128-132.992h262.88c35.84 0 64.992-30.816 64.992-68.704v-689.6c0-37.888-29.152-68.704-64.992-68.704h-893.984z" />
<glyph unicode="&#xe918;" glyph-name="toy" horiz-adv-x="1055" d="M970.67 764.055c-9.689-3.379-20-5.55-30.87-5.55-50.932 0-92.329 40.212-92.329 89.633 0 10.572 2.236 20.556 5.683 29.981-43.54 23.191-92.205 36.027-142.391 36.027-65.342 0-125.559-20.897-174.596-55.776-9.845-19.657 29.224-117.319 161.242-245.49 132.143-128.295 232.795-166.181 252.95-156.508 35.932 47.622 57.422 106.034 57.422 169.437 0 48.707-13.199 95.926-37.112 138.247zM939.801 891.915c-24.876 0-45.093-19.657-45.093-43.778s20.217-43.778 45.093-43.778c24.845 0 45.093 19.657 45.093 43.778s-20.248 43.778-45.093 43.778zM629.304 546.779c129.72-125.938 228.913-164.724 251.615-156.911 10.839 7.379 20.994 15.626 30.714 24.307-70.497 18.106-167.205 88.206-247.64 166.274-80.311 77.975-152.671 171.762-171.46 240.188-8.882-9.394-17.329-19.191-24.876-29.64-7.919-22.106 31.988-118.373 161.646-244.218zM433.59 728.71c-12.64-31.996-19.876-66.597-19.876-102.902 0-158.957 133.261-288.306 297.049-288.306 37.329 0 72.95 7.007 105.901 19.253-66.988 26.539-150.155 89.043-220.776 157.593-70.652 68.581-134.969 149.315-162.298 214.362zM337.192 309.598c-41.149-39.964-107.609-72.611-166.242-101.414-40.248-19.812-78.292-38.507-92.981-52.769-19.814-19.222-30.714-44.77-30.714-71.929s10.901-52.707 30.714-71.929c40.838-39.623 107.298-39.623 148.168 0.031 14.627 14.2 33.758 51.064 54.006 90.067 29.565 57.016 63.106 121.66 104.472 161.81 41.149 39.995 98.82 67.279 138.23 82.719-39.938 25.361-74.068 58.505-100.186 97.26-15.963-38.073-44.161-93.787-85.466-133.844zM1055.018 625.808c0-75.123-26.211-144.076-69.596-199.883l1.18-1.147c-1.118-1.085-2.702-1.426-3.913-2.387-18.82-23.594-40.435-44.987-64.969-62.969l0.776-0.744c-3.354-3.255-7.64-4.961-11.615-7.131-55.714-37.67-123.261-59.9-196.118-59.9-46.584 0-90.994 9.115-131.553 25.485-4.565-1.333-104.13-30.663-161.211-86.067-35.994-34.973-67.702-96.081-95.683-150.028-22.95-44.243-42.795-82.44-62.795-101.879-29.627-28.772-68.571-43.158-107.515-43.158-38.913 0-77.795 14.386-107.453 43.127-28.727 27.904-44.565 64.953-44.565 104.39 0.031 39.375 15.838 76.456 44.565 104.328 20.031 19.44 59.441 38.817 105.093 61.233 55.466 27.253 118.323 58.163 154.161 92.919 57.081 55.404 87.329 150.648 88.975 155.95-16.894 39.437-26.304 82.595-26.304 127.86 0 69.139 21.739 133.41 58.913 186.768 2.516 5.457 5.652 10.572 10.124 14.913l0.776-0.744c18.261 23.408 39.876 44.119 63.696 62.194 1.273 1.55 2.174 3.255 3.634 4.682l1.211-1.178c57.484 42.103 128.509 67.558 205.932 67.558 59.783 0 117.826-15.595 169.379-44.026 16.149 13.394 36.801 21.796 59.658 21.796 50.901 0 92.329-40.212 92.329-89.633 0-22.168-8.665-42.227-22.453-57.915 29.255-50.071 45.342-106.406 45.342-164.414z" />
<glyph unicode="&#xe919;" glyph-name="sitemap" d="M656 16h288v288h-288v-288zM368 592h288v288h-288v-288zM80 16h288v288h-288v-288zM960-32h-320c-17.6 0-32 14.4-32 32v320c0 17.6 14.4 32 32 32h144v80h-544v-80h144c17.6 0 32-14.4 32-32v-320c0-17.6-14.4-32-32-32h-320c-17.6 0-32 14.4-32 32v320c0 17.6 14.4 32 32 32h128v128h288v64h-128c-17.6 0-32 14.4-32 32v320c0 17.6 14.4 32 32 32h320c17.6 0 32-14.4 32-32v-320c0-17.6-14.4-32-32-32h-144v-64h304v-128h128c17.6 0 32-14.4 32-32v-320c0-17.6-14.4-32-32-32v0z" />
<glyph unicode="&#xe91a;" glyph-name="privacy" d="M510.773 233.626l-20.047 11.626c-12.791 7.389-20.392 20.339-20.392 34.56 0 22.219 18.167 40.254 40.439 40.254 22.246 0 40.413-18.035 40.413-40.254 0-14.221-7.574-27.171-20.365-34.56l-20.047-11.626zM429.921 279.812c0-29.714 16.34-55.402 40.413-69.358v-51.403c0-22.246 18.088-40.254 40.439-40.254 22.325 0 40.413 18.008 40.413 40.254v51.403c24.073 13.956 40.413 39.645 40.413 69.358 0 44.465-36.175 80.508-80.825 80.508s-80.852-36.043-80.852-80.508zM846.773 0h-672v480h672v-480zM303.421 657.511c0.383 110.36 73.605 239.794 207.343 239.794s206.481-134.958 208.181-237.123l-0.173-132.183h-416l0.648 129.511zM766.773 528l-0.136 130.876c0 155.639-99.589 285.124-255.864 285.124s-256.080-128.763-256.080-284.402l0.080-131.598h-87.587c0 0-38.971-5.234-39.803-38.406l0.543-494.895c0.379-39.297 39.26-42.699 39.26-42.699h687.148c0 0 42.283 1.848 42.201 44.352l-1.152 493.242c0.703 36.906-41.049 38.406-41.049 38.406h-87.561z" />
<glyph unicode="&#xe91b;" glyph-name="terms" d="M421.587 325.011h-27.851v31.296l516.443 515.642c5.323 5.294 11.524 6.117 14.79 6.117 3.21 0 9.467-0.823 14.762-6.117 5.351-5.294 6.174-11.547 6.174-14.729 0-3.264-0.823-9.463-6.174-14.757l-518.145-517.452zM779.789 7.784h-704.107v704h608l-336.227-336.488-0.223-96.059 96.848-1.266 335.709 337.812v-608zM873.284 902.952l-177.238-179.207 0.164 36.039h-636.283c-17.808 0-32.244-14.568-32.244-31.855v-736.291c0-17.593 14.568-31.855 31.855-31.855h736.291c17.593 0 31.855 14.56 31.855 32.188v635.176l-35.312-0.294 179.414 181.805c24.531 24.357 22.031 68.336-2.5 92.803-12.238 12.206-61.915 34.756-96 1.49z" />
<glyph unicode="&#xe91c;" glyph-name="faq" d="M513.6-19.264c-251.488 0-464.928 214.432-464.928 465.888s212.832 465.472 464.32 465.472c251.488 0 463.104-211.296 463.104-462.72 0-251.456-211.008-468.64-462.496-468.64zM512 960c-282.816 0-512-229.216-512-512 0-282.816 229.184-512 512-512 282.784 0 512 229.184 512 512 0 282.784-229.216 512-512 512zM512 263.648c-22.624 0-40.96-18.336-40.96-40.928 0-22.656 18.336-40.96 40.96-40.96s40.96 18.304 40.96 40.96c0 22.592-18.336 40.928-40.96 40.928zM510.368 722.528c-104.576 0-167.488-64.224-168.256-171.808l-0.032-3.264h52.384l-0.064 3.328c-0.768 40.576 10.368 73.856 32.256 96.16 19.84 20.256 47.264 30.528 81.536 30.528 57.408 0 100.704-40.864 100.704-95.040 0-32.096-15.104-62.048-46.208-91.52-56.128-52.16-71.712-76.448-74.56-148.032l-0.128-3.36h52.896l0.32 7.744c2.464 57.984 2.464 57.984 55.648 111.264 38.592 36.352 64.32 71.712 64.32 126.080 0 81.216-62.016 137.92-150.816 137.92z" />
<glyph unicode="&#xe91d;" glyph-name="about" d="M552.96 570.88h-102.4v-40.96h40.96v-348.16h-40.96v-40.96h143.36v40.96h-40.96v389.12zM502.407 652.8c28.268 0 51.2 22.932 51.2 51.2s-22.932 51.2-51.2 51.2c-28.268 0-51.2-22.932-51.2-51.2s22.932-51.2 51.2-51.2v0zM48.664 446.602c0 251.452 212.85 465.477 464.328 465.477s463.094-211.274 463.094-462.727c0-251.452-211.006-468.625-462.484-468.625s-464.937 214.423-464.937 465.875zM512 960c-282.813 0-512-229.214-512-512 0-282.813 229.187-512 512-512 282.786 0 512 229.187 512 512 0 282.786-229.214 512-512 512v0z" />
<glyph unicode="&#xe91e;" glyph-name="family" d="M782.432 482.080c-58.144 0-105.472-47.072-105.472-104.96s47.328-104.96 105.472-104.96c58.144 0 105.472 47.072 105.472 104.96s-47.328 104.96-105.472 104.96zM338.464 783.552c-105.856 0-192-85.728-192-191.104s86.144-191.104 192-191.104c105.888 0 192.032 85.728 192.032 191.104s-86.144 191.104-192.032 191.104zM0.947 64c9.090 149.211 83.582 273.201 221.645 318.624-74.304 40.8-124.8 119.52-124.8 209.824 0 132.064 107.968 239.552 240.672 239.552 132.736 0 240.704-107.488 240.704-239.552 0-90.368-50.56-169.152-124.992-209.952 85.76-28.288 135.78-79.037 181.636-158.621 18.976 15.904 32.092 20.733 55.356 30.269-37.92 27.968-62.88 72.48-62.88 122.976 0 84.608 69.152 153.408 154.144 153.408s154.144-68.8 154.144-153.408c0-50.496-24.96-95.008-62.912-122.976 78.253-32.050 135.968-103.899 147.377-190.144h-49.204c-15.103 90.484-94.298 159.712-189.405 159.712-95.136 0-174.334-69.228-189.437-159.712h-48.505c7.663 45.012 30.303 89.772 55.675 122.563-54.912 106.24-141.22 166.333-261.7 166.333-166.791 0-276.072-126.951-288.588-288.896h-48.929z" />
<glyph unicode="&#xe91f;" glyph-name="other" d="M864 576c-70.688 0-128-57.312-128-128s57.312-128 128-128c70.688 0 128 57.312 128 128s-57.312 128-128 128zM864 528c44.096 0 80-35.904 80-80s-35.904-80-80-80c-44.096 0-80 35.904-80 80s35.904 80 80 80zM512 576c-70.688 0-128-57.312-128-128s57.312-128 128-128c70.688 0 128 57.312 128 128s-57.312 128-128 128zM512 528c44.096 0 80-35.904 80-80s-35.904-80-80-80c-44.096 0-80 35.904-80 80s35.904 80 80 80zM160 576c-70.688 0-128-57.312-128-128s57.312-128 128-128c70.688 0 128 57.312 128 128s-57.312 128-128 128zM160 528c44.096 0 80-35.904 80-80s-35.904-80-80-80c-44.096 0-80 35.904-80 80s35.904 80 80 80z" />
<glyph unicode="&#xe920;" glyph-name="companies" d="M400.608 167.072h62.176v114.464h-62.176v-114.464zM400.608 395.936h62.176v114.464h-62.176v-114.464zM400.608 624.864h62.176v114.464h-62.176v-114.464zM209.824 167.072h62.176v114.464h-62.176v-114.464zM209.824 395.936h62.176v114.464h-62.176v-114.464zM209.824 624.864h62.176v114.464h-62.176v-114.464zM756.032 163.68h121.632v62.176h-121.632v-62.176zM756.032 316.256h121.632v62.176h-121.632v-62.176zM661.664 16.032h315.072v479.968h-315.072v-479.968zM614.4 544v336.032h-567.136v-864h567.136v527.968zM959.936-32h-895.872c-35.616 0-64.064 28.544-64.064 63.744v832.512c0 35.008 28.672 63.744 64.032 63.744h533.6c35.584 0 64.032-28.768 64.032-64.256v-319.744h298.4c35.488 0 63.936-28.576 63.936-63.84v-448.32c0-35.264-28.672-63.84-64.064-63.84v0z" />
<glyph unicode="&#xe921;" glyph-name="like_hand" d="M51.2 499.223c-28.274 0-51.2-22.926-51.2-51.2v-460.8c0-28.274 22.926-51.2 51.2-51.2h102.4c28.274 0 51.2 22.926 51.2 51.2v460.8c0 28.274-22.926 51.2-51.2 51.2h-102.4zM1017.287 488.983c-24.348 49.664-52.736 48.64-52.736 48.64s-246.443 1.024-288.028 0c-42.61-1.991-33.451 18.261-28.388 36.523 53.76 131.812 59.847 191.659 64.91 259.584 3.015 135.908-50.745 126.805-73.045 125.781-75.036-9.102-83.172-37.547-89.259-68.949-20.252-105.472-36.523-137.899-56.775-174.421-61.895-106.496-180.565-230.229-186.596-239.332-6.087-9.159-8.135-20.309-8.135-20.309v-454.315c0-10.126-4.039-15.189 8.135-24.348 16.213-9.102 84.139-30.436 117.646-36.523 33.451-6.030 290.020-6.030 369.152-4.039 97.337 9.159 92.274 84.196 89.259 97.337-3.072 14.222 1.991 23.381 12.174 28.444 77.084 40.562 48.64 114.574 40.562 125.724-8.135 12.174-6.087 24.348 4.039 28.388 76.060 45.625 45.625 108.544 36.523 125.781-9.159 16.213-3.072 24.292 8.135 32.427 50.688 29.412 40.562 90.283 32.427 113.607z" />
<glyph unicode="&#xe922;" glyph-name="dislike_hand" d="M51.2 391.197c-28.274 0-51.2 22.926-51.2 51.2v460.8c0 28.274 22.926 51.2 51.2 51.2h102.4c28.274 0 51.2-22.926 51.2-51.2v-460.8c0-28.274-22.926-51.2-51.2-51.2h-102.4zM1003.139 407.104c-24.348-49.664-52.736-48.64-52.736-48.64s-246.443-1.024-288.028 0c-42.61 1.991-33.451-18.261-28.388-36.523 53.76-131.812 59.847-191.659 64.91-259.584 3.015-135.908-50.745-126.805-73.045-125.781-75.036 9.102-83.172 37.547-89.259 68.949-20.252 105.472-36.523 137.899-56.775 174.421-61.895 106.496-180.565 230.229-186.596 239.332-6.087 9.159-8.135 20.309-8.135 20.309v454.315c0 10.126-4.039 15.189 8.135 24.348 16.213 9.102 84.139 30.436 117.646 36.523 33.451 6.030 290.020 6.030 369.152 4.039 97.337-9.159 92.274-84.196 89.259-97.337-3.072-14.222 1.991-23.381 12.174-28.444 77.084-40.562 48.64-114.574 40.562-125.724-8.135-12.174-6.087-24.348 4.039-28.388 76.060-45.625 45.625-108.544 36.523-125.781-9.159-16.213-3.072-24.292 8.135-32.427 50.688-29.412 40.562-90.283 32.427-113.607z" />
<glyph unicode="&#xe923;" glyph-name="arrow_enter" d="M0 960v-757.27h858.335l-191.043-200.793 60.371-66.293 296.292 311.43-296.292 311.43-60.371-66.293 190.642-200.392h-770.76v668.182z" />
<glyph unicode="&#xe924;" glyph-name="hyperlink" d="M227.556 330.183l-80.441-80.441c-44.373-44.373-44.373-116.565 0-160.939 44.316-44.373 116.508-44.373 160.882 0l259.3 259.3c20.025-75.776 1.252-159.63-58.14-219.079l-120.718-120.661c-88.86-88.86-232.903-88.86-321.82 0-88.86 88.86-88.86 232.96 0 321.82l120.718 120.661c59.392 59.392 143.246 78.165 219.022 58.14l-178.802-178.802zM348.217 289.963c-22.187 22.187-22.187 58.254 0 80.441l241.38 241.38c22.187 22.187 58.254 22.187 80.441 0 22.244-22.244 22.244-58.254 0-80.441l-241.323-241.38c-22.244-22.244-58.254-22.244-80.498 0v0zM951.637 571.563l-120.661-120.718c-59.449-59.392-143.303-78.165-219.079-58.14l259.3 259.3c44.373 44.373 44.373 116.565 0 160.882-44.373 44.373-116.565 44.373-160.939 0l-259.243-259.243c-20.025 75.776-1.252 159.63 58.14 219.022l120.661 120.718c88.86 88.86 232.96 88.86 321.82 0 88.86-88.917 88.86-232.96 0-321.82v0z" />
<glyph unicode="&#xe925;" glyph-name="video" horiz-adv-x="1308" d="M585.859 589.289l197.461-141.084-197.461-141.084v282.169zM511.96 163.647l398.336 284.558-398.336 284.615v-569.173zM1234.506 392.966c0-112.071-12.516-226.19-12.516-226.19v0c-4.836-36.978-19.968-89.088-34.702-105.756-25.828-30.037-51.769-32.882-74.638-35.385l-7.339-0.853c-178.119-14.165-448.512-14.791-450.332-14.848-3.356 0.057-331.492 3.527-434.859 13.938-5.518 0.967-11.776 1.877-18.716 2.844-28.16 3.755-57.287 7.623-81.067 35.328-13.938 15.701-29.070 67.812-33.735 103.481-0.114 1.138-12.629 114.972-12.629 227.499v110.421c0 111.957 12.459 226.133 12.459 226.133v0c4.949 37.774 19.797 88.974 34.702 105.813 25.941 30.208 51.826 32.939 74.695 35.328l7.225 0.853c177.948 14.279 448.114 14.45 450.844 14.45h0.626c2.731 0 272.782-0.114 450.901-14.45l7.168-0.796c22.869-2.446 48.754-5.177 75.492-36.238 14.165-15.986 28.956-67.186 33.792-103.652 0.114-1.138 12.629-115.086 12.629-227.499v-110.421zM1295.377 739.021c0 0-12.8 100.409-51.996 144.612-49.778 57.913-105.529 58.311-131.129 61.554-183.068 14.791-457.728 14.791-457.728 14.791h-0.626c0 0-274.66 0-457.728-14.791-25.543-3.3-81.294-3.641-131.072-61.554-39.196-44.203-51.996-144.612-51.996-144.612s-13.084-117.817-13.084-235.577v-110.421c0-117.931 13.084-235.691 13.084-235.691s12.743-100.352 51.996-144.441c49.778-57.97 115.143-56.206 144.213-62.236 104.676-11.207 444.928-14.677 444.928-14.677s274.944 0.512 458.012 15.189c25.6 3.413 81.351 3.755 131.129 61.668 39.196 44.146 51.996 144.498 51.996 144.498s13.084 117.76 13.084 235.634v110.421c0 117.817-13.084 235.634-13.084 235.634v0z" />
<glyph unicode="&#xe926;" glyph-name="file" horiz-adv-x="1138" d="M63.698 1.741c84.935-85.504 223.004-85.561 307.94 0l492.715 496.299c24.804 24.69 38.514 57.799 38.571 93.070 0.228 70.428-60.985 132.039-130.901 131.868-35.044-0.114-67.925-13.881-92.615-39.026l-430.933-434.062c-17.010-17.18-17.010-44.885 0-62.066 17.010-17.124 44.544-17.124 61.611 0l431.104 434.29c8.306 8.42 19.342 12.971 31.004 13.141 23.324 0 43.634-20.48 43.634-43.975-0.057-11.719-4.608-22.756-12.857-31.061l-492.885-496.412c-50.972-51.314-133.86-51.314-184.775 0-50.972 51.257-50.972 134.77 0 186.084l554.325 558.308c84.878 85.504 223.004 85.561 307.94 0 84.878-85.504 84.878-224.654 0-310.158l-431.161-434.233c-17.010-17.18-17.010-44.885 0-62.066 17.067-17.18 44.601-17.18 61.611 0l431.104 434.233c118.841 119.694 118.841 314.596 0 434.29-118.784 119.694-312.32 119.637-431.104 0l-554.325-558.364c-84.935-85.504-84.935-224.597 0-310.158z" />
<glyph unicode="&#xe927;" glyph-name="image" d="M923.525 550.706l-99.213 102.431-3.789 3.738-3.686-3.891-383.231-414.534-226.157 257.122-4.045 3.994-3.635-4.403-97.788-126.644 0.419 489.2 819.2-0.119 1.925-306.894zM921.6 38.4h-819.287l0.087 153.6 102.844 150.656 225.423-253.998 3.84-3.84 3.686 3.942 384.751 410.745 98.719-102.706-0.062-358.4zM916.224 960h-808.397c-59.546 0-107.827-48.23-107.827-107.776v-808.448c0-59.494 48.282-107.776 107.827-107.776h808.397c59.546 0 107.776 48.282 107.776 107.776v808.448c0 59.546-48.23 107.776-107.776 107.776v0zM358.4 806.4c-84.838 0-153.6-68.762-153.6-153.6s68.762-153.6 153.6-153.6c84.838 0 153.6 68.762 153.6 153.6s-68.762 153.6-153.6 153.6zM358.4 714.24c33.894 0 61.44-27.546 61.44-61.44s-27.546-61.44-61.44-61.44c-33.894 0-61.44 27.546-61.44 61.44s27.546 61.44 61.44 61.44z" />
<glyph unicode="&#xe928;" glyph-name="sport" d="M938.528 844.308c-49.152 48.352-129.088 48.288-178.176 0-11.36-11.2-20.224-24.064-26.496-38.336l165.696-163.072c14.496 6.144 27.584 14.88 38.976 26.080 23.776 23.424 36.896 54.56 36.896 87.68s-13.12 64.224-36.896 87.648v0zM663.328 677.972l36.032-35.488 66.176 65.152-20.32 20-81.888-49.664zM700.448 771.7l-92.512-39.2 20.32-20 81.888 49.664-9.696 9.536zM458.24 609.428l127.776 77.504-25.76 25.344-144.352-61.184 42.336-41.664zM81.024 509.204c4.672-46.112 29.152-82.816 44.224-101.6l290.752 176.256-46.592 45.856 3.040 2.976-291.424-123.488zM263.264 213.236l264.64 260.48-76.832 75.616-305.312-185.088c6.272-106.304 86.592-141.632 117.504-151.008v0zM450.976 64.34l187.84 300.224-76.8 75.584-262.048-257.92c18.112-32.544 70.112-110.176 151.008-117.888v0zM598.016 0.34l124.864 285.376-1.984-1.952-47.008 46.272-179.008-286.080c19.232-14.848 56.704-38.976 103.136-43.616v0zM804.384 471.988l-25.792 25.376-78.72-125.76 42.336-41.664 62.176 142.048zM804.576 538.9l20.32-19.968 39.84 91.072-9.696 9.536-50.464-80.64zM769.536 573.428l50.432 80.64-20.32 20-66.176-65.152 36.064-35.488zM665.248 608.916l-44.16 43.488-127.776-77.472 68.704-67.648 103.232 101.632zM596.128 473.716l68.704-67.616 78.688 125.792-44.16 43.456-103.232-101.632zM972.64 635.412c-17.152-16.864-38.24-29.12-60.768-37.664l-282.432-645.664h-15.872c-78.88 0-139.296 45.76-159.776 63.552-115.52 5.856-181.44 114.976-200 150.72-59.136 16-152.864 73.728-157.312 200.928-18.144 20.224-64.48 79.52-64.48 157.216v15.648l656 277.984c8.704 22.144 21.12 42.912 38.24 59.744 67.904 66.784 178.496 66.88 246.4 0 32.896-32.352 51.040-75.424 51.040-121.216s-18.144-88.864-51.040-121.248v0z" />
<glyph unicode="&#xe929;" glyph-name="domestic" d="M796.444 642.061c0-22.802 18.204-41.285 40.635-41.285s40.635 18.484 40.635 41.285c0 22.802-18.204 41.285-40.635 41.285s-40.635-18.484-40.635-41.285zM796.444 476.887c0-22.802 18.204-41.285 40.635-41.285s40.635 18.484 40.635 41.285c0 22.835-18.204 41.318-40.635 41.318s-40.635-18.484-40.635-41.318zM757.858 294.701v49.562h152.365v-49.562h-152.365zM211.302 336.51v280.787h438.857v-280.787h-438.857zM162.54 286.98h536.381v379.878h-536.381v-379.878zM48.762 171.368h926.476v611.102h-926.476v-611.102zM942.73 121.806v-57.806h-48.762v57.806h-763.937v-57.806h-48.762v57.806h-17.235c-35.365 0-64.035 28.72-64.035 64.278v581.639c0 35.5 28.456 64.278 64.056 64.278h895.888c35.377 0 64.056-28.72 64.056-64.278v-581.639c0-35.5-28.424-64.278-64.035-64.278h-17.235z" />
<glyph unicode="&#xe92a;" glyph-name="check" horiz-adv-x="1308" d="M450.115-41.769c-14.28-14.82-32.639-22.231-50.999-22.231-18.849 0-37.535 7.836-51.815 23.082l-325.821 348.45c-28.641 30.578-28.641 80.235 0 110.812 28.641 30.663 74.989 30.663 103.63 0l274.822-293.853 784.239 813.418c29.049 30.067 75.397 29.385 103.63-1.703 28.151-31.004 27.417-80.66-1.632-110.812l-836.054-867.163z" />
<glyph unicode="&#xe92b;" glyph-name="lock" horiz-adv-x="838" d="M326.41 289.242c0-33.881 18.816-63.171 46.538-79.085v-58.612c0-25.365 20.829-45.899 46.568-45.899 25.709 0 46.538 20.534 46.538 45.899v58.612c27.721 15.914 46.538 45.204 46.538 79.085 0 50.7-41.658 91.798-93.076 91.798s-93.106-41.098-93.106-91.798zM767.665 5.818h-699.744l0.557 487.432 698.182 0.244 1.006-487.676zM211.269 657.516c0.417 119.030 62.679 232.51 208.356 232.51s204.678-120.664 206.53-230.855v-95.34l-414.887-1.524v95.209zM697.58 566.748l-0.148 95.226c0 167.866-109.588 298.026-279.814 298.026s-276.956-138.949-276.956-306.815l0.919-87.212-97.392 0.071c0 0-42.45-5.646-43.357-41.423l-0.241-542.566c0.413-42.384 42.765-46.054 42.765-46.054h748.493c0 0 46.058 1.993 45.968 47.836l0.222 540.784c0.766 39.806-44.713 41.423-44.713 41.423l-95.746 0.705z" />
<glyph unicode="&#xe92c;" glyph-name="exit" d="M0 960.026v-1021.645h690.33v235.725h-75.315v-157.133h-539.699v864.461h539.699v-157.184h75.315v235.776h-690.33zM778.752 596.096l103.066-107.622h-542.925v-78.541h542.925l-103.066-107.622 53.197-55.552 193.997 202.445-193.997 202.445-53.197-55.552z" />
<glyph unicode="&#xe92d;" glyph-name="uniE92D" horiz-adv-x="1126" d="M870.4 448l-81.92-158.72-174.080-35.84 117.76-133.12-20.48-184.32 158.72 76.8 158.72-76.8-20.48 184.32 117.76 133.12-174.080 35.84z" />
<glyph unicode="&#xe92e;" glyph-name="uniE92E" horiz-adv-x="1126" d="M563.2 960l-81.92-158.72-174.080-35.84 117.76-133.12-20.48-184.32 158.72 76.8 158.72-76.8-20.48 184.32 117.76 133.12-174.080 35.84-81.92 158.72z" />
<glyph unicode="&#xe92f;" glyph-name="uniE92F" horiz-adv-x="1126" d="M256 448l-81.92-158.72-174.080-35.84 117.76-133.12-20.48-184.32 158.72 76.8 158.72-76.8-20.48 184.32 117.76 133.12-174.080 35.84z" />
<glyph unicode="&#xe930;" glyph-name="invisible" d="M896 432c-25.6-28.8-51.2-54.4-83.2-80-35.2-28.8-76.8-54.4-118.4-73.6l28.8-64c48 22.4 89.6 48 131.2 83.2 35.2 28.8 67.2 57.6 92.8 89.6 16 19.2 28.8 32 32 41.6l12.8 19.2-12.8 19.2c-6.4 9.6-16 22.4-32 41.6-25.6 28.8-57.6 60.8-92.8 89.6-102.4 80-217.6 131.2-342.4 131.2-73.6 0-144-16-208-48-3.2 0-3.2 0-3.2-3.2l28.8-60.8c0 0 0 0 3.2 0 57.6 25.6 118.4 41.6 182.4 41.6 108.8 0 211.2-41.6 300.8-115.2 32-25.6 60.8-54.4 83.2-80 3.2-6.4 9.6-9.6 12.8-16-6.4-3.2-9.6-9.6-16-16zM182.4 739.2l611.2-630.4 48 48-611.2 630.4zM566.4 243.2c-19.2-3.2-35.2-3.2-54.4-3.2-204.8 0-352 153.6-396.8 211.2 22.4 28.8 70.4 76.8 134.4 121.6l-48 51.2c-96-70.4-153.6-147.2-156.8-153.6l-12.8-19.2 12.8-19.2c6.4-9.6 185.6-259.2 470.4-259.2 38.4 0 76.8 3.2 112 12.8l-60.8 57.6zM553.6 352c35.2 16 57.6 54.4 57.6 96 0 57.6-44.8 105.6-102.4 105.6-41.6 0-76.8-25.6-92.8-60.8l137.6-140.8zM345.6 569.6c38.4 54.4 99.2 89.6 166.4 89.6 112 0 204.8-96 204.8-211.2 0-70.4-35.2-134.4-86.4-172.8l48-51.2c64 51.2 105.6 131.2 105.6 220.8 0 153.6-121.6 281.6-272 281.6-86.4 0-166.4-41.6-214.4-108.8l48-48zM563.2 243.2c-16-3.2-32-6.4-51.2-6.4-112 0-204.8 96-204.8 211.2 0 19.2 3.2 35.2 6.4 54.4l-54.4 54.4c-12.8-32-22.4-70.4-22.4-108.8 0-153.6 121.6-281.6 272-281.6 38.4 0 73.6 6.4 105.6 22.4l-51.2 54.4z" />
<glyph unicode="&#xe931;" glyph-name="visible" d="M614.4 448c0-53.019-44.413-96-99.2-96s-99.2 42.981-99.2 96c0 53.019 44.413 96 99.2 96s99.2-42.981 99.2-96zM512 252.8c108.8 0 198.4 86.4 198.4 195.2s-89.6 195.2-198.4 195.2-198.4-86.4-198.4-195.2c0-105.6 89.6-195.2 198.4-195.2zM512 176c-153.6 0-275.2 121.6-275.2 272s124.8 272 275.2 272 275.2-121.6 275.2-272c0-150.4-121.6-272-275.2-272zM899.2 460.8c-25.6 25.6-57.6 54.4-92.8 76.8-96 70.4-195.2 112-294.4 112s-201.6-41.6-294.4-112c-35.2-25.6-64-51.2-92.8-76.8-3.2-3.2-9.6-9.6-12.8-12.8 3.2-3.2 6.4-6.4 12.8-12.8 25.6-25.6 57.6-54.4 92.8-76.8 96-70.4 195.2-112 294.4-112s201.6 41.6 294.4 112c35.2 25.6 64 51.2 92.8 76.8 3.2 3.2 9.6 9.6 12.8 12.8-3.2 3.2-9.6 9.6-12.8 12.8zM969.6 416c-6.4-9.6-16-19.2-25.6-28.8-28.8-28.8-60.8-57.6-99.2-83.2-105.6-76.8-217.6-124.8-332.8-124.8s-227.2 48-332.8 124.8c-35.2 25.6-70.4 54.4-99.2 83.2-9.6 9.6-19.2 19.2-25.6 28.8-3.2 6.4-9.6 9.6-9.6 9.6l-19.2 22.4 19.2 22.4c3.2 3.2 6.4 6.4 9.6 9.6 6.4 9.6 16 19.2 25.6 28.8 28.8 28.8 60.8 57.6 99.2 83.2 105.6 76.8 217.6 124.8 332.8 124.8s227.2-48 332.8-124.8c35.2-25.6 70.4-54.4 99.2-83.2 9.6-9.6 19.2-19.2 25.6-28.8 3.2-6.4 9.6-9.6 9.6-9.6l19.2-22.4-19.2-22.4c-3.2-3.2-6.4-6.4-9.6-9.6z" />
</font>
</defs>
</svg>
